# xmcd
#
# Track frame offsets: 
#        150
#        13362
#        26498
#        39238
#        52950
#        67219
#        80259
#        93700
#        106175
#        120437
#        133207
#        148254
#        161556
#        175528
#        190058
#        202370
#        214297
#        226726
#        239408
#        253328
#
# Disc length: 3562 seconds
#
# Revision: 5
# Processed by: cddbd v1.5.2PL0 Copyright (c) Steve Scherf et al.
# Submitted via: ExactAudioCopy v1.0b5
#
DISCID=240de814
DTITLE=Various Artist - Country, Bluegrass and Mountain Music CD2
DYEAR=2002
DGENRE=Country
TTITLE0=Roy Atcuff - Wabash Cannonball
TTITLE1=Hank Williams - I'm A Long Gone Daddy
TTITLE2=Bob Wills - Steel Guitar Rag
TTITLE3=Jimmy Wakely - Song Of The Sierras
TTITLE4=Eddie Dean - Sleepy Time In Caroline
TTITLE5=Tex Williams - Smoke! Smoke! Smoke! (That Cigarette!)
TTITLE6=Red Foley - Have I Told You Lately That I Love You
TTITLE7=Red Foley - Tennessee Border
TTITLE8=The Sons Of The Pioneers - Lie Low, Little Doggies
TTITLE9=Carson Robinson - Goin' To The Barn-Dance Tonight
TTITLE10=The Alabama Barnstormers - Little Bessie
TTITLE11=The Hill Billies - Ragtime Cowboy Joe
TTITLE12=The Original Hoosier Hotshots - Meet Me By The Icehouse, Lizz
TTITLE12=ie
TTITLE13=Merle Travis - Ridin' Down To Santa Fe
TTITLE14=Gene Autry - The Cowboy's Trademark
TTITLE15=The Sons Of The Pioneers - The Last Round Up
TTITLE16=Eddie Arnold - I'll Hold You In My Heart
TTITLE17=Hank Williams - Move It On Over
TTITLE18=Aarons Sisters - She Come Rolling Down The Mountain
TTITLE19=Rex Cole - She's Too Good For Me
EXTD=
EXTT0=
EXTT1=
EXTT2=
EXTT3=
EXTT4=
EXTT5=
EXTT6=
EXTT7=
EXTT8=
EXTT9=
EXTT10=
EXTT11=
EXTT12=
EXTT13=
EXTT14=
EXTT15=
EXTT16=
EXTT17=
EXTT18=
EXTT19=
PLAYORDER=
